<svg  viewBox="0 0 137 58" fill="none" xmlns="http://www.w3.org/2000/svg">
<path d="M50.1393 43.7383L32.2021 12.3252L22.4183 17.8288L37.1543 43.6346L50.1393 43.7383Z" fill="#FF4A02"/>
<path d="M32.8163 43.6011L20.9793 22.8696L11.1956 28.3732L19.8313 43.4974L32.8163 43.6011Z" fill="#FF4A02"/>
<path d="M15.5094 43.4624L9.78388 33.4365L0.00012207 38.9385L2.52445 43.3586L15.5094 43.4624Z" fill="#FF4A02"/>
<path d="M59.1801 0H57.733V57.0833H59.1801V0Z" fill="#FF4A02"/>
<path d="M130.106 31.7229L128.779 29.5591C129.61 29.3262 130.035 28.7884 130.035 27.7911C130.035 26.3773 129.186 25.873 127.52 25.873H122.082V31.7229H124.386V29.6996H126.449L127.683 31.7229H130.109H130.106ZM124.382 27.2964H126.994C127.429 27.2964 127.676 27.4783 127.676 27.7911C127.676 28.1038 127.429 28.2858 126.994 28.2858H124.382V27.2964Z" fill="#FF4A02"/>
<path d="M88.7275 25.7373C85.8559 25.7373 84.3702 26.7825 84.3702 28.7979C84.3702 30.8133 85.8655 31.8584 88.7275 31.8584C91.5895 31.8584 93.0944 30.8133 93.0944 28.7979C93.0944 26.7825 91.5991 25.7373 88.7275 25.7373ZM88.7275 30.2707C87.3255 30.2707 86.6663 29.8048 86.6663 28.7963C86.6663 27.7878 87.3158 27.3218 88.7275 27.3218C90.1392 27.3218 90.8081 27.7878 90.8081 28.7963C90.8081 29.8048 90.1489 30.2707 88.7275 30.2707Z" fill="#FF4A02"/>
<path d="M71.4462 27.8533H67.6517V25.8491H65.3557V31.7453H67.6517V29.449H71.4462V31.7453H73.7423V25.8491H71.4462V27.8533Z" fill="#FF4A02"/>
<path d="M99.5128 28.5171C99.5128 29.7395 98.8535 30.2054 97.7055 30.2054C96.5575 30.2054 95.8887 29.7395 95.8887 28.5171V25.8491H93.5927V28.7964C93.5927 30.8293 95.1362 31.857 97.7055 31.857C100.275 31.857 101.801 30.8325 101.801 28.798V25.8491H99.5128V28.5171Z" fill="#FF4A02"/>
<path d="M85.2078 25.8491H82.2719L79.4774 28.0959V25.8491H77.1895V31.7453H79.4774V29.2129L82.2429 31.7437V31.7453H85.3123L81.7445 28.5076L85.2078 25.8491Z" fill="#FF4A02"/>
<path d="M133.027 25.8491H130.731V31.7453H133.027V25.8491Z" fill="#FF4A02"/>
<path d="M136.096 26.9404C136.096 26.6053 135.871 26.4282 135.456 26.4282H134.713V28.209H135.07V27.4527H135.263L135.701 28.2074H136.106L135.635 27.4367C135.934 27.3904 136.096 27.2213 136.096 26.9389V26.9404ZM135.069 27.175V26.7075H135.435C135.633 26.7075 135.738 26.792 135.738 26.9404C135.738 27.0888 135.633 27.1734 135.455 27.1734H135.069V27.175Z" fill="#FF4A02"/>
<path d="M135.354 25.7373C134.366 25.7373 133.707 26.3708 133.707 27.3234C133.707 28.2761 134.366 28.9191 135.354 28.9191C136.341 28.9191 137 28.2857 137 27.3234C137 26.3612 136.341 25.7373 135.354 25.7373ZM135.354 28.5729C134.59 28.5729 134.101 28.0782 134.101 27.3218C134.101 26.5655 134.59 26.0708 135.354 26.0708C136.117 26.0708 136.604 26.5655 136.604 27.3218C136.604 28.0782 136.116 28.5729 135.354 28.5729Z" fill="#FF4A02"/>
<path d="M117.486 25.9473C114.616 25.9473 113.129 26.9925 113.129 29.0078C113.129 31.0232 114.625 32.0684 117.486 32.0684C120.346 32.0684 121.853 31.0232 121.853 29.0078C121.853 26.9925 120.356 25.9473 117.486 25.9473ZM117.486 30.4807C116.084 30.4807 115.425 30.0147 115.425 29.0062C115.425 27.9978 116.074 27.5318 117.486 27.5318C118.897 27.5318 119.566 27.9978 119.566 29.0062C119.566 30.0147 118.907 30.4807 117.486 30.4807Z" fill="#FF4A02"/>
<path d="M107.38 29.0661L105.573 25.8491H102.457V31.7453H102.459H104.755V28.0592L106.74 31.7453H108.022L110.007 28.0592V31.7453H112.303V25.8491H109.187L107.38 29.0661Z" fill="#FF4A02"/>
<path d="M75.4723 31.8566C74.9449 31.8566 74.6073 31.5231 74.6073 31.0109C74.6073 30.4986 74.9449 30.146 75.4723 30.146C75.9997 30.146 76.3293 30.4795 76.3293 31.0109C76.3293 31.5422 75.9917 31.8566 75.4723 31.8566Z" fill="#FF4A02"/>
</svg>
